<svg width="46" height="46" viewBox="0 0 46 46" fill="none" xmlns="http://www.w3.org/2000/svg">
<path d="M0.304199 20.6899C0.362793 20.2211 0.421387 19.7597 0.47998 19.3056C0.538574 18.8515 0.626465 18.4047 0.743652 17.9653C1.15381 16.1196 1.81299 14.4203 2.72119 12.8676C3.62939 11.2856 4.72803 9.88665 6.01709 8.67083C7.30615 7.45501 8.771 6.45159 10.4116 5.66058C12.0229 4.84026 13.7515 4.28362 15.5972 3.99065C18.0288 3.60979 20.3872 3.69769 22.6724 4.25433C24.9868 4.84026 27.0742 5.79241 28.9346 7.11077C30.7949 8.42913 32.3696 10.0698 33.6587 12.0326C34.9478 13.9955 35.812 16.1928 36.2515 18.6244C36.2808 18.7416 36.3027 18.8515 36.3174 18.954C36.332 19.0566 36.3394 19.1518 36.3394 19.2397C36.3687 19.5326 36.3247 19.767 36.2075 19.9428C36.0903 20.1186 35.8999 20.2358 35.6362 20.2944C35.4019 20.3237 35.1968 20.2651 35.021 20.1186C34.8452 19.9721 34.728 19.7817 34.6694 19.5473C34.5229 18.9614 34.3765 18.3901 34.23 17.8334C34.0835 17.2768 33.937 16.7055 33.7905 16.1196C33.7612 16.0317 33.7173 15.9291 33.6587 15.8119C33.6001 15.6948 33.5562 15.5922 33.5269 15.5043C33.0581 15.6215 32.5894 15.7314 32.1206 15.8339C31.6519 15.9365 31.1978 16.061 30.7583 16.2075C30.5532 16.2953 30.3555 16.4272 30.165 16.603C29.9746 16.7787 29.8062 16.9545 29.6597 17.1303C29.4839 17.3354 29.3228 17.5478 29.1763 17.7675C29.0298 17.9872 28.8687 18.1996 28.6929 18.4047C28.1069 19.1078 27.4258 19.4594 26.6494 19.4594C25.873 19.4594 25.1919 19.1371 24.606 18.4926C24.4595 18.3168 24.3203 18.1484 24.1885 17.9872C24.0566 17.8261 23.9175 17.6576 23.771 17.4819C23.5952 17.2475 23.3828 17.0644 23.1338 16.9325C22.8848 16.8007 22.6138 16.7348 22.3208 16.7348C21.8228 16.7055 21.3174 16.6835 20.8047 16.6689C20.292 16.6542 19.7866 16.6323 19.2886 16.603C18.8491 16.5444 18.4609 16.4125 18.124 16.2075C17.7871 16.0024 17.5454 15.6655 17.3989 15.1967C17.2231 14.728 17.1792 14.2812 17.2671 13.8564C17.355 13.4316 17.5747 13.0434 17.9263 12.6918C18.1313 12.4867 18.3438 12.2963 18.5635 12.1205C18.7832 11.9448 18.9956 11.769 19.2007 11.5932C19.3179 11.5053 19.4351 11.4101 19.5522 11.3075C19.6694 11.205 19.772 11.1098 19.8599 11.0219C20.0356 10.8461 20.1602 10.663 20.2334 10.4726C20.3066 10.2822 20.2993 10.0698 20.2114 9.83538C20.1235 9.57171 20.0356 9.30804 19.9478 9.04436C19.8599 8.78069 19.7573 8.53167 19.6401 8.29729C19.4937 7.85784 19.3618 7.41106 19.2446 6.95696C19.1274 6.50286 19.0981 6.02679 19.1567 5.52874C17.4575 5.47015 15.8242 5.6386 14.2568 6.03411C12.6895 6.42962 11.2026 7.08147 9.79639 7.98968C7.97998 9.10296 6.47852 10.4579 5.29199 12.0546C4.10547 13.6513 3.20459 15.4897 2.58936 17.5698C2.70654 17.5405 2.80176 17.5112 2.875 17.4819C2.94824 17.4526 3.02881 17.4233 3.1167 17.394C3.99561 17.0424 4.90381 16.7861 5.84131 16.6249C6.77881 16.4638 7.73096 16.4418 8.69775 16.559C8.99072 16.6176 9.28369 16.6835 9.57666 16.7568C9.86963 16.83 10.1626 16.9399 10.4556 17.0864C11.2759 17.4672 11.8105 18.0385 12.0596 18.8002C12.3086 19.5619 12.228 20.353 11.8179 21.1733C11.73 21.3198 11.6348 21.4662 11.5322 21.6127C11.4297 21.7592 11.3345 21.9057 11.2466 22.0522C11.1001 22.2866 11.0122 22.5209 10.9829 22.7553C10.9536 22.9897 10.9829 23.2241 11.0708 23.4584C11.3052 24.1908 11.4004 24.9159 11.3564 25.6337C11.3125 26.3515 11.1294 27.0473 10.8071 27.7211C10.6313 28.102 10.6021 28.3949 10.7192 28.6C10.8364 28.8051 11.1001 28.9369 11.5103 28.9955C11.8618 29.0541 12.2134 29.0908 12.5649 29.1054C12.9165 29.12 13.2681 29.1567 13.6196 29.2153C14.9966 29.4203 15.9487 30.1235 16.4761 31.3246C17.0034 32.5258 17.062 33.6684 16.6519 34.7524C16.4468 35.2504 16.1831 35.7045 15.8608 36.1147C15.5386 36.5248 15.1724 36.9057 14.7622 37.2573C14.6743 37.3451 14.5864 37.4257 14.4985 37.499C14.4106 37.5722 14.3228 37.6381 14.2349 37.6967C14.7915 37.9897 15.5825 38.1801 16.6079 38.268C17.604 38.3559 18.666 38.3412 19.7939 38.2241C20.9219 38.1069 22.0132 37.9164 23.0679 37.6528C24.1519 37.3598 25.0161 37.0082 25.6606 36.5981C25.1919 35.8949 24.877 35.1552 24.7158 34.3788C24.5547 33.6025 24.5327 32.8041 24.6499 31.9838C24.7671 31.017 25.0308 30.1015 25.4409 29.2372C25.8511 28.373 26.3784 27.56 27.0229 26.7983C28.4585 25.1869 30.0771 24.037 31.8789 23.3486C33.6807 22.6601 35.6509 22.4037 37.7896 22.5795C38.7563 22.6674 39.7012 22.8432 40.624 23.1069C41.5469 23.3705 42.4185 23.7807 43.2388 24.3373C43.5317 24.5424 43.8174 24.7695 44.0957 25.0185C44.374 25.2675 44.6304 25.5385 44.8647 25.8315C45.1577 26.2123 45.2676 26.5566 45.1943 26.8642C45.1211 27.1718 44.8794 27.4574 44.4692 27.7211C44.4399 27.7211 44.4253 27.7211 44.4253 27.7211C43.5171 28.1606 42.792 28.7465 42.25 29.4789C41.708 30.2114 41.2905 31.0317 40.9976 31.9399C40.7046 32.8188 40.353 33.6611 39.9429 34.4667C39.5327 35.2724 39.0347 36.0268 38.4487 36.7299C37.5405 37.7846 36.5225 38.5976 35.3945 39.1689C34.2666 39.7402 32.9849 39.9672 31.5493 39.85C30.729 39.8207 29.96 39.6596 29.2422 39.3666C28.5244 39.0737 27.8433 38.6782 27.1987 38.1801C27.1108 38.0922 27.0156 38.0409 26.9131 38.0263C26.8105 38.0116 26.7007 38.0336 26.5835 38.0922C24.7378 39.0004 22.8335 39.5864 20.8706 39.85C18.9077 40.1137 16.9814 40.0698 15.0918 39.7182C13.2021 39.3666 11.3931 38.7074 9.66455 37.7407C7.93604 36.8032 6.36865 35.5727 4.9624 34.0492C3.61475 32.5551 2.56006 30.9218 1.79834 29.1493C1.03662 27.3769 0.567871 25.4799 0.39209 23.4584C0.39209 23.3705 0.384766 23.2973 0.370117 23.2387C0.355469 23.1801 0.333496 23.1069 0.304199 23.019C0.304199 22.6381 0.304199 22.2499 0.304199 21.8544C0.304199 21.4589 0.304199 21.0707 0.304199 20.6899ZM26.8911 35.2797C26.9497 35.1625 27.001 35.0746 27.0449 35.016C27.0889 34.9574 27.1255 34.8989 27.1548 34.8403C27.7407 33.8149 28.3779 32.8481 29.0664 31.9399C29.7549 31.0317 30.5386 30.1967 31.4175 29.435C31.6226 29.2299 31.8496 29.0322 32.0986 28.8417C32.3477 28.6513 32.5894 28.4682 32.8237 28.2924C33.0288 28.1459 33.2412 28.0947 33.4609 28.1386C33.6807 28.1825 33.8638 28.3071 34.0103 28.5121C34.1567 28.6879 34.2153 28.8857 34.186 29.1054C34.1567 29.3251 34.0542 29.5229 33.8784 29.6987C33.8198 29.7573 33.7539 29.8085 33.6807 29.8525C33.6074 29.8964 33.5415 29.933 33.4829 29.9623C32.311 30.8705 31.293 31.8959 30.4287 33.0385C29.5645 34.1811 28.7954 35.3969 28.1216 36.686C28.7661 37.2133 29.4546 37.6088 30.187 37.8725C30.9194 38.1362 31.6958 38.2387 32.5161 38.1801C33.5122 38.1215 34.3911 37.8505 35.1528 37.3671C35.9146 36.8837 36.5884 36.2758 37.1743 35.5434C37.731 34.8696 38.1851 34.1518 38.5366 33.3901C38.8882 32.6283 39.2104 31.8373 39.5034 31.017C39.8257 30.0795 40.2725 29.2226 40.8438 28.4462C41.415 27.6699 42.1548 27.0326 43.063 26.5346C43.0923 26.5346 43.1069 26.5199 43.1069 26.4907C43.1069 26.4614 43.1216 26.4321 43.1509 26.4028C43.0044 26.2856 42.8652 26.1757 42.7334 26.0732C42.6016 25.9706 42.4624 25.8754 42.3159 25.7875C40.6167 24.85 38.8955 24.33 37.1523 24.2275C35.4092 24.1249 33.6587 24.4692 31.9009 25.2602C30.5239 25.8461 29.374 26.6591 28.4512 27.6991C27.5283 28.7392 26.8765 30.0063 26.4956 31.5004C26.3198 32.1449 26.2612 32.7748 26.3198 33.3901C26.3784 34.0053 26.5688 34.6352 26.8911 35.2797ZM7.59912 18.141C6.77881 18.1996 5.98779 18.3241 5.22607 18.5146C4.46436 18.705 3.71729 18.9614 2.98486 19.2836C2.6626 19.4301 2.42822 19.6132 2.28174 19.8329C2.13525 20.0527 2.06201 20.3383 2.06201 20.6899C2.00342 22.4477 2.1499 24.103 2.50146 25.6557C2.82373 27.1791 3.35107 28.6 4.0835 29.9184C4.81592 31.2367 5.73877 32.4379 6.85205 33.5219C7.99463 34.6059 9.32764 35.5873 10.8511 36.4662C11.4663 36.7885 11.8765 36.9423 12.0815 36.9277C12.2866 36.913 12.6821 36.686 13.2681 36.2465C13.6489 35.9535 13.9932 35.6386 14.3008 35.3017C14.6084 34.9648 14.8647 34.5619 15.0698 34.0932C15.2749 33.5366 15.231 32.8774 14.938 32.1157C14.645 31.3539 14.0737 30.9438 13.2241 30.8852C12.9604 30.8559 12.6968 30.8339 12.4331 30.8193C12.1694 30.8046 11.9058 30.7826 11.6421 30.7533C10.4702 30.6655 9.66455 30.226 9.2251 29.435C8.78564 28.644 8.80029 27.7797 9.26904 26.8422C9.50342 26.4028 9.63525 25.956 9.66455 25.5019C9.69385 25.0478 9.62061 24.5864 9.44482 24.1176C9.26904 23.5317 9.21777 22.975 9.29102 22.4477C9.36426 21.9203 9.57666 21.4076 9.92822 20.9096C9.98682 20.851 10.0381 20.7778 10.082 20.6899C10.126 20.602 10.1772 20.5141 10.2358 20.4262C10.4702 20.016 10.5361 19.6425 10.4336 19.3056C10.3311 18.9687 10.0454 18.7123 9.57666 18.5366C9.25439 18.4487 8.9248 18.3754 8.58789 18.3168C8.25098 18.2582 7.92139 18.1996 7.59912 18.141ZM32.7358 13.9223C32.7065 13.8344 32.6772 13.7612 32.6479 13.7026C32.6187 13.644 32.5894 13.5854 32.5601 13.5268C31.3003 11.5053 29.7769 9.85003 27.9897 8.56097C26.2026 7.2719 24.1372 6.37835 21.7935 5.8803C21.3247 5.76311 21.0317 5.76311 20.9146 5.8803C20.7974 5.99749 20.812 6.30511 20.9585 6.80315C20.9878 6.89104 21.0171 6.97161 21.0464 7.04485C21.0757 7.1181 21.105 7.19866 21.1343 7.28655C21.2222 7.55022 21.3174 7.79925 21.4199 8.03362C21.5225 8.268 21.6177 8.51702 21.7056 8.78069C21.9985 9.6303 22.0571 10.3554 21.8813 10.956C21.7056 11.5566 21.2661 12.1498 20.563 12.7358C20.3579 12.8823 20.1528 13.0361 19.9478 13.1972C19.7427 13.3583 19.5376 13.5121 19.3325 13.6586C19.2153 13.7758 19.1128 13.915 19.0249 14.0761C18.937 14.2372 18.937 14.391 19.0249 14.5375C19.0835 14.6547 19.186 14.7426 19.3325 14.8012C19.479 14.8598 19.6255 14.8891 19.772 14.8891C20.1821 14.9184 20.5996 14.9404 21.0244 14.955C21.4492 14.9697 21.8813 14.9916 22.3208 15.0209C22.9067 15.0209 23.4414 15.1454 23.9248 15.3945C24.4082 15.6435 24.8257 16.0024 25.1772 16.4711C25.2944 16.6176 25.4043 16.7641 25.5068 16.9106C25.6094 17.0571 25.7339 17.1889 25.8804 17.3061C26.1147 17.5991 26.3711 17.7382 26.6494 17.7236C26.9277 17.7089 27.1841 17.5551 27.4185 17.2621C27.5356 17.0864 27.6528 16.9179 27.77 16.7568C27.8872 16.5956 28.0044 16.4272 28.1216 16.2514C28.5024 15.6948 28.9419 15.2626 29.4399 14.955C29.938 14.6474 30.5093 14.435 31.1538 14.3178C31.4175 14.2592 31.6812 14.1933 31.9448 14.12C32.2085 14.0468 32.4722 13.9809 32.7358 13.9223Z" fill="#69727D"/>
</svg>
