<svg width="46" height="46" viewBox="0 0 46 46" fill="none" xmlns="http://www.w3.org/2000/svg">
<path d="M2.60883 24.293C2.60883 23.7363 2.60883 23.187 2.60883 22.645C2.60883 22.103 2.60883 21.5537 2.60883 20.9971C2.66742 20.9971 2.68939 20.9751 2.67474 20.9312C2.6601 20.8872 2.65277 20.8506 2.65277 20.8213C2.71136 20.4404 2.76263 20.0596 2.80658 19.6787C2.85052 19.2979 2.91644 18.917 3.00433 18.5361C3.44379 16.4854 4.16156 14.5737 5.15765 12.8013C6.15375 11.0288 7.42816 9.4248 8.9809 7.98926C10.1821 6.90527 11.4272 5.98242 12.7162 5.2207C14.0053 4.48828 15.353 3.90967 16.7592 3.48486C18.1655 3.06006 19.6157 2.78906 21.1098 2.67188C22.6039 2.58398 24.1567 2.65723 25.768 2.8916C27.7016 3.18457 29.5034 3.73389 31.1733 4.53955C32.8432 5.34521 34.4106 6.40723 35.8754 7.72559C36.8422 8.5752 37.7065 9.49805 38.4682 10.4941C39.2299 11.4609 39.8818 12.4863 40.4238 13.5703C40.9658 14.6543 41.4125 15.7822 41.7641 16.9541C42.1157 18.1553 42.3647 19.4004 42.5112 20.6895C42.687 22.3301 42.6577 23.9487 42.4233 25.5454C42.1889 27.1421 41.7495 28.7021 41.1049 30.2256C40.3432 31.9248 39.4496 33.4629 38.4243 34.8398C37.3989 36.2168 36.2343 37.4106 34.9306 38.4214C33.6269 39.4321 32.1987 40.2744 30.6459 40.9482C29.0639 41.6221 27.35 42.1055 25.5043 42.3984C25.27 42.457 25.0429 42.4863 24.8232 42.4863C24.6035 42.4863 24.3764 42.5303 24.142 42.6182C23.6147 42.6182 23.0947 42.6182 22.582 42.6182C22.0693 42.6182 21.5493 42.6182 21.0219 42.6182C21.0219 42.5596 20.9999 42.5376 20.956 42.5522C20.912 42.5669 20.8754 42.5596 20.8461 42.5303C19.9379 42.4717 19.0517 42.3472 18.1874 42.1567C17.3232 41.9663 16.4662 41.71 15.6166 41.3877C13.7709 40.626 12.1157 39.7031 10.6508 38.6191C9.18597 37.5645 7.91156 36.356 6.82758 34.9937C5.74359 33.6313 4.86469 32.1152 4.19086 30.4453C3.51703 28.7754 3.03363 26.9443 2.74066 24.9521C2.71136 24.835 2.69672 24.7178 2.69672 24.6006C2.69672 24.4834 2.66742 24.3809 2.60883 24.293ZM29.8549 28.6875C29.8549 28.6875 29.8622 28.7021 29.8769 28.7314C29.8915 28.7607 29.9135 28.7607 29.9428 28.7314C29.9721 28.7021 29.9794 28.6802 29.9648 28.6655C29.9501 28.6509 29.9282 28.6289 29.8989 28.5996C29.518 27.9258 29.1298 27.2446 28.7343 26.5562C28.3388 25.8677 27.9506 25.1719 27.5698 24.4688C27.5405 24.4102 27.5112 24.3662 27.4819 24.3369C27.4526 24.3076 27.394 24.293 27.3061 24.293C27.0131 24.293 26.7202 24.293 26.4272 24.293C26.1342 24.293 25.8266 24.293 25.5043 24.293C25.5336 24.3223 25.5483 24.3442 25.5483 24.3589C25.5483 24.3735 25.5483 24.3809 25.5483 24.3809C26.2514 25.1133 26.9619 25.8311 27.6796 26.5342C28.3974 27.2373 29.1225 27.9551 29.8549 28.6875ZM36.0952 34.9277C37.7358 33.1699 38.9662 31.1631 39.7866 28.9072C40.6069 26.6514 40.9877 24.3516 40.9291 22.0078C40.8705 19.6641 40.3432 17.3643 39.3471 15.1084C38.351 12.8525 36.8569 10.8311 34.8647 9.04395C32.8725 7.25684 30.7338 5.99707 28.4487 5.26465C26.1928 4.50293 23.9589 4.18066 21.747 4.29785C19.5351 4.41504 17.433 4.89844 15.4409 5.74805C13.478 6.59766 11.7934 7.69629 10.3871 9.04395C11.852 10.5381 13.3242 12.0249 14.8036 13.5044C16.2831 14.9839 17.7553 16.4561 19.2202 17.9209C19.2202 17.0713 19.2202 16.207 19.2202 15.3281C19.2202 14.4492 19.2202 13.5557 19.2202 12.6475C19.1616 12.6475 19.1103 12.6328 19.0663 12.6035C19.0224 12.5742 18.9711 12.5596 18.9125 12.5596C18.7368 12.4717 18.6049 12.3472 18.517 12.186C18.4291 12.0249 18.3998 11.8564 18.4291 11.6807C18.4584 11.5049 18.539 11.3438 18.6708 11.1973C18.8027 11.0508 18.9565 10.9775 19.1323 10.9775C20.2748 10.9775 21.4247 10.9775 22.582 10.9775C23.7392 10.9775 24.8891 10.9775 26.0317 10.9775C26.2368 11.0068 26.3979 11.0874 26.5151 11.2192C26.6323 11.3511 26.7055 11.5049 26.7348 11.6807C26.7641 11.8857 26.7348 12.0615 26.6469 12.208C26.559 12.3545 26.4272 12.4717 26.2514 12.5596C26.1928 12.5889 26.1415 12.6108 26.0976 12.6255C26.0536 12.6401 26.0024 12.6475 25.9438 12.6475C25.9438 13.5264 25.9438 14.4053 25.9438 15.2842C25.9438 16.1631 25.9438 17.042 25.9438 17.9209C25.9438 18.0381 25.9584 18.1479 25.9877 18.2505C26.017 18.353 26.061 18.4629 26.1196 18.5801C27.0864 20.3086 28.0678 22.0298 29.0639 23.7437C30.06 25.4575 31.0414 27.1787 32.0082 28.9072C32.2133 29.2588 32.3745 29.625 32.4916 30.0059C32.6088 30.3867 32.6235 30.7822 32.5356 31.1924C32.5356 31.251 32.5502 31.3096 32.5795 31.3682C32.6088 31.4268 32.6528 31.4854 32.7114 31.5439C33.268 32.1006 33.8246 32.6646 34.3813 33.2358C34.9379 33.8071 35.5092 34.3711 36.0952 34.9277ZM31.7446 33.082C31.393 33.4629 30.9975 33.7632 30.558 33.9829C30.1186 34.2026 29.6205 34.3125 29.0639 34.3125C26.9252 34.3125 24.7719 34.3125 22.6039 34.3125C20.436 34.3125 18.2827 34.3125 16.144 34.3125C15.7338 34.3125 15.353 34.2539 15.0014 34.1367C14.6498 34.0195 14.3129 33.8438 13.9907 33.6094C13.2289 33.0234 12.7748 32.313 12.6284 31.478C12.4819 30.6431 12.643 29.8008 13.1118 28.9512C13.9614 27.457 14.8183 25.9629 15.6826 24.4688C16.5468 22.9746 17.4037 21.4951 18.2534 20.0303C18.2827 19.9717 18.312 19.9131 18.3412 19.8545C18.3705 19.7959 18.3852 19.752 18.3852 19.7227C16.8325 18.1699 15.2724 16.6099 13.705 15.0425C12.1376 13.4751 10.5776 11.915 9.02484 10.3623C7.41351 12.0908 6.19769 14.0684 5.37738 16.2949C4.55707 18.5215 4.17621 20.8066 4.2348 23.1504C4.2934 25.4941 4.82074 27.8086 5.81683 30.0938C6.81293 32.3496 8.30707 34.3857 10.2993 36.2021C12.2621 37.9893 14.3862 39.249 16.6713 39.9814C18.9272 40.7432 21.1611 41.0728 23.373 40.9702C25.5849 40.8677 27.687 40.3916 29.6791 39.542C31.7006 38.6924 33.4145 37.5645 34.8207 36.1582C34.3227 35.6309 33.8173 35.1108 33.3046 34.5981C32.7919 34.0854 32.2719 33.5801 31.7446 33.082ZM30.558 31.8076C30.558 31.8076 30.558 31.8003 30.558 31.7856C30.558 31.771 30.5434 31.7637 30.5141 31.7637C29.3129 30.5332 28.1044 29.3101 26.8886 28.0942C25.6728 26.8784 24.4496 25.6699 23.2192 24.4688C23.1606 24.4102 23.102 24.3662 23.0434 24.3369C22.9848 24.3076 22.9116 24.293 22.8237 24.293C22.0327 24.293 21.2343 24.293 20.4286 24.293C19.623 24.293 18.8246 24.293 18.0336 24.293C17.9164 24.293 17.8212 24.3149 17.748 24.3589C17.6747 24.4028 17.6088 24.4688 17.5502 24.5566C17.3745 24.8789 17.1987 25.2012 17.0229 25.5234C16.8471 25.8457 16.6567 26.168 16.4516 26.4902C16.1586 27.0469 15.851 27.6035 15.5287 28.1602C15.2065 28.7168 14.8842 29.2734 14.562 29.8301C14.1811 30.5039 14.1591 31.1411 14.496 31.7417C14.8329 32.3423 15.3676 32.6426 16.1 32.6426C18.268 32.6426 20.4286 32.6426 22.582 32.6426C24.7353 32.6426 26.8959 32.6426 29.0639 32.6426C29.3862 32.6426 29.6718 32.5693 29.9208 32.4229C30.1699 32.2764 30.3823 32.0713 30.558 31.8076ZM20.4946 19.3711C21.0512 19.8984 21.5859 20.4258 22.0986 20.9531C22.6113 21.4805 23.1313 22.0078 23.6586 22.5352C23.6879 22.5645 23.7245 22.5864 23.7685 22.6011C23.8124 22.6157 23.8637 22.623 23.9223 22.623C24.3325 22.623 24.7573 22.623 25.1967 22.623C25.6362 22.623 26.0756 22.623 26.5151 22.623C26.1635 22.0371 25.8266 21.4512 25.5043 20.8652C25.1821 20.2793 24.8598 19.708 24.5375 19.1514C24.4203 19.0049 24.3398 18.8438 24.2958 18.668C24.2519 18.4922 24.2299 18.3164 24.2299 18.1406C24.2299 17.7012 24.2299 17.2544 24.2299 16.8003C24.2299 16.3462 24.2299 15.8848 24.2299 15.416C24.2299 14.9473 24.2299 14.4858 24.2299 14.0317C24.2299 13.5776 24.2299 13.1162 24.2299 12.6475C23.6733 12.6475 23.124 12.6475 22.582 12.6475C22.04 12.6475 21.4907 12.6475 20.934 12.6475C20.934 13.5264 20.934 14.3833 20.934 15.2183C20.934 16.0532 20.934 16.8955 20.934 17.7451C20.934 18.0381 20.9194 18.3237 20.8901 18.6021C20.8608 18.8804 20.7289 19.1367 20.4946 19.3711ZM21.2856 22.623C20.9926 22.3594 20.7143 22.0884 20.4506 21.8101C20.187 21.5317 19.9086 21.2461 19.6157 20.9531C19.4692 21.2168 19.3154 21.4878 19.1542 21.7661C18.9931 22.0444 18.8393 22.3301 18.6928 22.623C19.1323 22.623 19.5717 22.623 20.0112 22.623C20.4506 22.623 20.8754 22.623 21.2856 22.623Z" fill="#69727D"/>
</svg>
