<svg width="46" height="46" viewBox="0 0 46 46" fill="none" xmlns="http://www.w3.org/2000/svg">
<path d="M41.3334 12.911C41.2748 12.9403 41.2455 12.9842 41.2455 13.0428C41.2455 13.1014 41.2455 13.1453 41.2455 13.1746C41.1869 14.0828 41.1136 14.9764 41.0258 15.8553C40.9379 16.7342 40.7767 17.6278 40.5424 18.536C40.3666 19.327 40.1249 20.1033 39.8173 20.8651C39.5096 21.6268 39.1215 22.3592 38.6527 23.0623C38.1254 23.7947 37.5175 24.3807 36.829 24.8201C36.1405 25.2596 35.3568 25.5819 34.4779 25.7869C33.3646 26.0213 32.266 26.0726 31.182 25.9407C30.098 25.8089 29.0287 25.4793 27.974 24.952C27.7689 24.8641 27.5712 24.7469 27.3807 24.6004C27.1903 24.4539 26.9926 24.2928 26.7875 24.117C26.641 24.3807 26.4872 24.637 26.326 24.8861C26.1649 25.1351 26.0258 25.3914 25.9086 25.6551C25.264 26.9442 24.744 28.2625 24.3485 29.6102C23.953 30.9578 23.6674 32.3348 23.4916 33.741C23.3744 34.4735 23.2938 35.2132 23.2499 35.9603C23.2059 36.7073 23.184 37.4471 23.184 38.1795C23.184 38.5018 23.118 38.7508 22.9862 38.9266C22.8544 39.1024 22.6566 39.1903 22.3929 39.1903C22.1879 39.2195 22.0048 39.1683 21.8436 39.0364C21.6825 38.9046 21.5873 38.7362 21.558 38.5311C21.558 38.4725 21.5507 38.3992 21.536 38.3113C21.5214 38.2235 21.514 38.1502 21.514 38.0916C21.514 36.7147 21.4701 35.345 21.3822 33.9827C21.2943 32.6204 21.1478 31.2654 20.9427 29.9178C20.7084 28.5701 20.4154 27.2371 20.0638 25.9188C19.7123 24.6004 19.2582 23.326 18.7015 22.0955C18.6722 22.0076 18.6429 21.9271 18.6136 21.8538C18.5844 21.7806 18.5404 21.7147 18.4818 21.6561C17.808 22.0369 17.1195 22.3079 16.4164 22.4691C15.7133 22.6302 14.9955 22.7254 14.2631 22.7547C13.2377 22.7547 12.2562 22.6302 11.3187 22.3812C10.3812 22.1321 9.51697 21.6561 8.72595 20.9529C8.2572 20.5135 7.85437 20.0154 7.51746 19.4588C7.18054 18.9022 6.88025 18.3309 6.61658 17.7449C6.23572 16.7781 5.94275 15.804 5.73767 14.8226C5.53259 13.8411 5.38611 12.8377 5.29822 11.8123C5.21033 11.0506 5.15173 10.2816 5.12244 9.50519C5.09314 8.72882 5.07849 7.94513 5.07849 7.15412C5.07849 6.83185 5.15173 6.59015 5.29822 6.42902C5.4447 6.26789 5.67908 6.18732 6.00134 6.18732C7.23181 6.18732 8.45496 6.23127 9.67078 6.31916C10.8866 6.40705 12.0951 6.56818 13.2963 6.80256C14.1459 6.94904 14.9735 7.16144 15.7792 7.43976C16.5848 7.71808 17.3685 8.07697 18.1302 8.51642C19.1556 9.16095 19.9393 9.93732 20.4813 10.8455C21.0233 11.7537 21.3676 12.8084 21.514 14.0096C21.6019 14.8592 21.5946 15.6942 21.4921 16.5145C21.3895 17.3348 21.1771 18.1404 20.8549 18.9315C20.7377 19.1951 20.6058 19.4515 20.4594 19.7005C20.3129 19.9495 20.1517 20.1766 19.976 20.3817C19.9174 20.4695 19.8881 20.5428 19.8881 20.6014C19.8881 20.66 19.9027 20.7186 19.932 20.7772C20.5765 22.0662 21.0892 23.3846 21.4701 24.7322C21.851 26.0799 22.1732 27.4569 22.4369 28.8631C22.4369 28.951 22.4515 29.0462 22.4808 29.1487C22.5101 29.2513 22.5248 29.3611 22.5248 29.4783C22.5248 29.5076 22.5321 29.5296 22.5468 29.5443C22.5614 29.5589 22.5687 29.5955 22.5687 29.6541C22.8031 28.8338 23.0594 28.0428 23.3378 27.2811C23.6161 26.5194 23.9457 25.7723 24.3265 25.0399C24.5023 24.659 24.7001 24.2855 24.9198 23.9193C25.1395 23.553 25.3666 23.1942 25.601 22.8426C25.6595 22.784 25.6888 22.7181 25.6888 22.6448C25.6888 22.5716 25.6742 22.491 25.6449 22.4031C25.0883 21.0555 24.8026 19.7078 24.788 18.3602C24.7733 17.0125 25.0883 15.6795 25.7328 14.3611C26.0844 13.658 26.5458 13.0721 27.1171 12.6033C27.6884 12.1346 28.3109 11.7391 28.9847 11.4168C29.8929 10.9481 30.8378 10.5892 31.8192 10.3402C32.8007 10.0911 33.7894 9.89337 34.7855 9.74689C35.6937 9.6297 36.5946 9.54914 37.4882 9.50519C38.3817 9.46124 39.2679 9.43927 40.1469 9.43927C40.4105 9.43927 40.6376 9.47589 40.828 9.54914C41.0184 9.62238 41.1722 9.79083 41.2894 10.0545C41.2894 10.3768 41.2894 10.7064 41.2894 11.0433C41.2894 11.3802 41.2894 11.7098 41.2894 12.032C41.2601 12.0613 41.2455 12.098 41.2455 12.1419C41.2455 12.1859 41.2601 12.2225 41.2894 12.2518C41.3187 12.369 41.3334 12.4788 41.3334 12.5814C41.3334 12.6839 41.3334 12.7938 41.3334 12.911ZM26.9193 21.2166C26.9486 21.158 26.9779 21.1068 27.0072 21.0628C27.0365 21.0189 27.0511 20.9969 27.0511 20.9969C27.7836 20.1473 28.5746 19.3856 29.4242 18.7117C30.2738 18.0379 31.1674 17.4373 32.1049 16.91C32.3392 16.7928 32.5663 16.6683 32.786 16.5364C33.0057 16.4046 33.2474 16.2947 33.5111 16.2069C33.7748 16.119 34.0165 16.1336 34.2362 16.2508C34.4559 16.368 34.5804 16.5584 34.6097 16.8221C34.6683 17.0272 34.6537 17.2029 34.5658 17.3494C34.4779 17.4959 34.3168 17.6278 34.0824 17.7449C33.3207 18.1258 32.5809 18.5433 31.8632 18.9974C31.1454 19.4515 30.4642 19.9715 29.8197 20.5574C29.4388 20.8797 29.08 21.2239 28.743 21.5902C28.4061 21.9564 28.0765 22.3299 27.7543 22.7108C27.9301 22.9158 28.1058 23.0843 28.2816 23.2161C28.4574 23.348 28.6478 23.4578 28.8529 23.5457C29.6439 23.9559 30.4496 24.2049 31.2699 24.2928C32.0902 24.3807 32.9252 24.3514 33.7748 24.2049C34.4779 24.0877 35.1224 23.8753 35.7084 23.5677C36.2943 23.2601 36.7924 22.8133 37.2025 22.2274C37.4955 21.8465 37.7445 21.4437 37.9496 21.0189C38.1547 20.5941 38.3451 20.1619 38.5209 19.7225C38.9017 18.5506 39.1727 17.3641 39.3339 16.1629C39.495 14.9617 39.5902 13.7606 39.6195 12.5594C39.6488 12.325 39.6561 12.0833 39.6415 11.8343C39.6268 11.5853 39.6195 11.3436 39.6195 11.1092C38.7406 11.1092 37.8617 11.1458 36.9828 11.2191C36.1039 11.2923 35.2103 11.3875 34.3021 11.5047C33.5111 11.6219 32.7347 11.7903 31.973 12.0101C31.2113 12.2298 30.4642 12.5154 29.7318 12.867C29.2045 13.16 28.7137 13.4896 28.2596 13.8558C27.8055 14.222 27.4467 14.6834 27.183 15.2401C26.7142 16.2069 26.4799 17.181 26.4799 18.1624C26.4799 19.1439 26.6263 20.1619 26.9193 21.2166ZM18.9652 18.9754C19.0238 18.9168 19.0604 18.8655 19.0751 18.8216C19.0897 18.7777 19.1117 18.7264 19.141 18.6678C19.5511 17.8182 19.8002 16.9393 19.8881 16.0311C19.976 15.1229 19.9027 14.2 19.6683 13.2625C19.5219 12.5887 19.2728 11.9954 18.9213 11.4827C18.5697 10.97 18.1156 10.5233 17.559 10.1424C17.0902 9.82013 16.5995 9.54914 16.0868 9.32941C15.5741 9.10968 15.0541 8.92658 14.5267 8.78009C13.3256 8.42853 12.1097 8.19415 10.8793 8.07697C9.6488 7.95978 8.40369 7.88654 7.14392 7.85724C7.08533 7.85724 7.01941 7.84992 6.94617 7.83527C6.87292 7.82062 6.79236 7.84259 6.70447 7.90119C6.73376 8.83869 6.77771 9.76886 6.8363 10.6917C6.8949 11.6146 6.99744 12.5301 7.14392 13.4383C7.26111 14.2 7.42224 14.9471 7.62732 15.6795C7.8324 16.4119 8.11072 17.1151 8.46228 17.7889C8.72595 18.3455 9.05554 18.8582 9.45105 19.327C9.84656 19.7957 10.3373 20.1619 10.9232 20.4256C11.7142 20.7772 12.5199 20.9822 13.3402 21.0408C14.1605 21.0994 14.9808 21.0408 15.8011 20.8651C16.1527 20.8065 16.4896 20.7259 16.8119 20.6234C17.1342 20.5208 17.4271 20.367 17.6908 20.1619C17.4857 19.8104 17.2733 19.4735 17.0536 19.1512C16.8339 18.8289 16.6068 18.5067 16.3724 18.1844C15.8158 17.4813 15.2152 16.8441 14.5707 16.2728C13.9261 15.7015 13.2377 15.1668 12.5052 14.6688C12.3881 14.6102 12.2782 14.5443 12.1757 14.471C12.0731 14.3978 11.9779 14.3172 11.89 14.2293C11.7142 14.0828 11.6263 13.8997 11.6263 13.68C11.6263 13.4603 11.6849 13.2625 11.8021 13.0867C11.9486 12.911 12.1244 12.8157 12.3295 12.8011C12.5345 12.7864 12.7396 12.8377 12.9447 12.9549C13.0619 13.0428 13.1718 13.1307 13.2743 13.2186C13.3768 13.3065 13.4867 13.3797 13.6039 13.4383C14.2484 13.907 14.871 14.3904 15.4716 14.8885C16.0721 15.3865 16.6361 15.9432 17.1635 16.5584C17.515 16.9393 17.8373 17.3348 18.1302 17.7449C18.4232 18.1551 18.7015 18.5653 18.9652 18.9754ZM41.3334 12.2518C41.2748 12.2225 41.2455 12.1859 41.2455 12.1419C41.2455 12.098 41.2748 12.0613 41.3334 12.032C41.3334 12.0613 41.3334 12.098 41.3334 12.1419C41.3334 12.1859 41.3334 12.2225 41.3334 12.2518Z" fill="#69727D"/>
</svg>
